<svg id="call" xmlns="http://www.w3.org/2000/svg" width="19.35" height="19.35" viewBox="0 0 19.35 19.35">
  <g id="Group_28" data-name="Group 28">
    <path id="Path_26" data-name="Path 26" d="M17.8,12.7a10.986,10.986,0,0,1-3.45-.55,1.577,1.577,0,0,0-1.534.323l-2.176,1.642a12.024,12.024,0,0,1-5.406-5.4L6.826,6.593A1.564,1.564,0,0,0,7.21,5.009a11,11,0,0,1-.552-3.456A1.554,1.554,0,0,0,5.106,0H1.553A1.554,1.554,0,0,0,0,1.553a17.817,17.817,0,0,0,17.8,17.8A1.554,1.554,0,0,0,19.35,17.8V14.253A1.554,1.554,0,0,0,17.8,12.7Z" fill="#101010"/>
  </g>
</svg>
