<svg xmlns="http://www.w3.org/2000/svg" width="19.885" height="14.914" viewBox="0 0 19.885 14.914">
  <g id="envelope" transform="translate(0 -64)">
    <g id="Group_30" data-name="Group 30" transform="translate(0 64)">
      <g id="Group_29" data-name="Group 29">
        <path id="Path_27" data-name="Path 27" d="M7.06,65.21c2.729,2.311,7.518,6.377,8.925,7.645a.831.831,0,0,0,1.2,0c1.409-1.269,6.2-5.336,8.927-7.647a.414.414,0,0,0,.058-.572,1.645,1.645,0,0,0-1.3-.638H8.3a1.645,1.645,0,0,0-1.3.638A.414.414,0,0,0,7.06,65.21Z" transform="translate(-6.645 -64)" fill="#101010"/>
        <path id="Path_28" data-name="Path 28" d="M19.644,126.45a.412.412,0,0,0-.442.06c-3.027,2.566-6.889,5.854-8.1,6.949a1.678,1.678,0,0,1-2.312,0c-1.3-1.167-5.633-4.855-8.1-6.949a.414.414,0,0,0-.682.316v10.418A1.659,1.659,0,0,0,1.657,138.9H18.228a1.659,1.659,0,0,0,1.657-1.657V126.826A.414.414,0,0,0,19.644,126.45Z" transform="translate(0 -123.988)" fill="#101010"/>
      </g>
    </g>
  </g>
</svg>
