<svg xmlns="http://www.w3.org/2000/svg" width="16.873" height="16.873" viewBox="0 0 16.873 16.873">
  <g id="user" transform="translate(0.001)">
    <g id="Group_65" data-name="Group 65" transform="translate(-0.001)">
      <path id="Path_44" data-name="Path 44" d="M14.4,10.908A8.4,8.4,0,0,0,11.2,8.9a4.878,4.878,0,1,0-5.519,0A8.45,8.45,0,0,0,0,16.873H1.318a7.118,7.118,0,0,1,14.237,0h1.318A8.382,8.382,0,0,0,14.4,10.908ZM8.437,8.437A3.559,3.559,0,1,1,12,4.877,3.563,3.563,0,0,1,8.437,8.437Z" transform="translate(0)" fill="#cfcfcf"/>
    </g>
  </g>
</svg>
